<svg xmlns="http://www.w3.org/2000/svg" xmlns:xlink="http://www.w3.org/1999/xlink" width="199" height="200" viewBox="0 0 199 200">
  <defs>
    <polygon id="a" points="0 199.2 0 .529 198.472 .529 198.472 199.2"/>
  </defs>
  <g fill="none" fill-rule="evenodd">
    <g transform="translate(0 .271)">
      <mask id="b" fill="white">
        <use xlink:href="#a"/>
      </mask>
      <path fill="#2EDB89" d="M163.741835,199.20032 L34.7298956,199.20032 C15.5491727,199.20032 0,183.63472 0,164.43472 L0,35.29392 C0,16.09312 15.5491727,0.52832 34.7298956,0.52832 L163.741835,0.52832 C182.922558,0.52832 198.471731,16.09312 198.471731,35.29392 L198.471731,164.43472 C198.471731,183.63472 182.922558,199.20032 163.741835,199.20032" mask="url(#b)"/>
    </g>
    <path fill="#FFFFFF" d="M165.746061,131.65744 C164.452961,93.14544 104.959953,93.38864 104.959953,133.53984 C104.959953,173.21184 167.143057,173.26224 165.746061,131.65744 L165.746061,131.65744 Z M79.4232177,67.57984 C79.4232177,67.57984 79.8931454,77.44064 66.9661373,76.71344 L48.4431534,76.17824 L48.4431534,95.37904 C48.4431534,95.37904 57.0904627,96.14944 72.1617157,96.14944 C82.9077157,96.14944 97.0638884,88.58304 98.0133341,70.37504 C98.8660771,54.00864 98.8660771,39.19104 98.8660771,39.19104 L79.1498924,39.01024 L79.4232177,67.57984 Z M135.364595,97.14544 C153.849218,97.14544 165.312097,83.72464 165.312097,67.16864 C165.312097,55.30064 162.131294,37.18944 135.364595,37.18944 C116.881571,37.18944 105.417892,54.47904 105.417892,71.03584 C105.417892,87.59184 123.362258,97.14544 135.364595,97.14544 L135.364595,97.14544 Z M98.6287157,104.66944 L79.3185229,104.42544 C71.8372418,118.99824 65.7593502,128.43904 65.7593502,128.43904 C65.7593502,128.43904 57.6706795,113.81024 53.5987719,104.50224 L33.9928763,104.81504 C33.9928763,104.81504 34.0504185,110.78064 34.0504185,124.34144 C34.0504185,137.90304 32.7021735,160.78224 32.7021735,160.78224 L49.448543,160.72304 L49.6914988,131.87424 L59.7781614,160.76144 L70.6848,160.80624 L81.9446835,130.51904 C81.9446835,130.51904 81.9231052,141.90704 81.9231052,147.06464 C81.9231052,151.56304 81.4300008,160.84304 81.4300008,160.84304 L98.8660771,160.78224 C98.8660771,160.78224 98.4560892,139.48464 98.4560892,134.77024 C98.4560892,120.54144 98.6287157,104.66944 98.6287157,104.66944 L98.6287157,104.66944 Z"/>
  </g>
</svg>
